<?xml version="1.0" encoding="utf-8"?>
<!-- Generator: Adobe Illustrator 15.0.2, SVG Export Plug-In  -->
<!DOCTYPE svg PUBLIC "-//W3C//DTD SVG 1.1//EN" "http://www.w3.org/Graphics/SVG/1.1/DTD/svg11.dtd" [
	<!ENTITY ns_flows "http://ns.adobe.com/Flows/1.0/">
]>
<svg version="1.1"
	 xmlns="http://www.w3.org/2000/svg" xmlns:xlink="http://www.w3.org/1999/xlink" xmlns:a="http://ns.adobe.com/AdobeSVGViewerExtensions/3.0/"
	 x="0px" y="0px" width="200px" height="200px" viewBox="0 0 200 200" enable-background="new 0 0 200 200" xml:space="preserve">
<defs>
</defs>
<path fill="#969696" stroke="#4D4D4D" stroke-width="20" stroke-miterlimit="10" d="M110,178c0,6.627-5.373,12-12,12H22
	c-6.627,0-12-5.373-12-12V22c0-6.627,5.373-12,12-12h76c6.627,0,12,5.373,12,12V178z"/>
<g>
	<path fill="#FFFFFF" d="M110,160c-33.084,0-60-26.916-60-60s26.916-60,60-60s60,26.916,60,60S143.084,160,110,160z"/>
	<path fill="#4D4D4D" d="M110,50c27.614,0,50,22.386,50,50s-22.386,50-50,50s-50-22.386-50-50S82.386,50,110,50 M110,30
		c-38.598,0-70,31.402-70,70c0,38.598,31.402,70,70,70c38.598,0,70-31.402,70-70C180,61.402,148.598,30,110,30L110,30z"/>
</g>
<g>
	<path fill="#FFFFFF" d="M110,160c-12.34,0-15.636-16.479-16.877-22.684C91.109,127.246,90,113.994,90,100
		c0-13.994,1.109-27.247,3.123-37.316C94.364,56.479,97.66,40,110,40c12.341,0,15.637,16.479,16.877,22.684
		C128.891,72.753,130,86.006,130,100s-1.109,27.247-3.123,37.316C125.637,143.521,122.341,160,110,160z"/>
	<path fill="#4D4D4D" d="M110,50c5.523,0,10,22.386,10,50s-4.477,50-10,50c-5.522,0-10-22.386-10-50S104.478,50,110,50 M110,30
		c-4.42,0-15.409,1.499-21.973,15.38c-1.914,4.047-3.455,9.066-4.71,15.342C81.178,71.418,80,85.368,80,100
		c0,14.633,1.178,28.581,3.317,39.277c1.255,6.277,2.796,11.296,4.71,15.343C94.591,168.501,105.58,170,110,170
		s15.409-1.499,21.974-15.38c1.913-4.047,3.454-9.065,4.709-15.343C138.822,128.582,140,114.633,140,100s-1.178-28.582-3.317-39.277
		c-1.255-6.277-2.796-11.295-4.709-15.343C125.409,31.499,114.42,30,110,30L110,30z"/>
</g>
<line fill="none" stroke="#4D4D4D" stroke-width="20" stroke-miterlimit="10" x1="50" y1="101" x2="170" y2="101"/>
</svg>
